<?xml version="1.0" encoding="UTF-8" standalone="no"?>
<!DOCTYPE svg PUBLIC "-//W3C//DTD SVG 1.0//EN"
"http://www.w3.org/TR/2001/REC-SVG-20010904/DTD/svg10.dtd">
<!-- Created with Inkscape (http://www.inkscape.org/) -->
<svg
   xmlns="http://www.w3.org/2000/svg"
   xmlns:xlink="http://www.w3.org/1999/xlink"
   version="1.0"
   x="0.00000000"
   y="0.00000000"
   width="30.968750"
   height="25.875000"
   id="svg2">
  <defs
     id="defs4">
    <linearGradient
       id="linearGradient3755">
      <stop
         style="stop-color:#6e6e6e;stop-opacity:1.0000000;"
         offset="0.00000000"
         id="stop3757" />
      <stop
         style="stop-color:#ffffff;stop-opacity:1.0000000;"
         offset="1.0000000"
         id="stop3759" />
    </linearGradient>
    <linearGradient
       x1="-0.38415879"
       y1="16.681530"
       x2="30.592752"
       y2="16.681530"
       id="linearGradient5207"
       xlink:href="#linearGradient3755"
       gradientUnits="userSpaceOnUse" />
  </defs>
  <g
     transform="translate(-195.9417,-562.2827)"
     id="layer1">
    <g
       transform="translate(196.3167,562.6577)"
       id="layer1-1">
      <path
         d="M 29.592752,16.601339 C 29.592752,20.969049 23.101922,24.513849 15.104292,24.513849 C 7.1066702,24.513849 0.61584122,20.969049 0.61584122,16.601339 L 0.61584122,8.8492103 L 29.592752,8.8492103 L 29.592752,16.601339 z "
         style="fill:url(#linearGradient5207);fill-opacity:1.0000000;fill-rule:evenodd;stroke:#000000;stroke-width:2.0000000;stroke-linecap:butt;stroke-linejoin:miter;stroke-opacity:1.0000000"
         id="path1091" />
      <path
         d="M 29.592752,16.601339 C 29.592752,20.969049 23.101922,24.513849 15.104292,24.513849 C 7.1066702,24.513849 0.61584122,20.969049 0.61584122,16.601339 L 0.61584122,8.8492103 L 29.592752,8.8492103 L 29.592752,16.601339 z "
         style="fill:none;fill-opacity:1.0000000;fill-rule:evenodd;stroke:#000000;stroke-width:2.0000000;stroke-linecap:butt;stroke-linejoin:miter;stroke-opacity:1.0000000"
         id="path2991" />
      <path
         d="M 29.607826,8.3628169 C 29.609126,12.644701 23.122063,16.116231 15.119369,16.116231 C 7.1166759,16.116231 0.62958363,12.644701 0.63091333,8.3628169 C 0.62958333,4.0809329 7.1166759,0.60940260 15.119369,0.60940260 C 23.122063,0.60940260 29.609156,4.0809329 29.607826,8.3628169 L 29.607826,8.3628169 L 29.607826,8.3628169 L 29.607826,8.3628169 z "
         style="fill:#ffffff;fill-opacity:1.0000000;fill-rule:evenodd;stroke:#000000;stroke-width:2.0000000;stroke-linecap:butt;stroke-linejoin:miter;stroke-opacity:1.0000000"
         id="path1092" />
    </g>
  </g>
</svg>
