<?xml version="1.0" encoding="UTF-8" standalone="no"?>
<!-- Created with Inkscape (http://www.inkscape.org/) -->
<svg
   xmlns:svg="http://www.w3.org/2000/svg"
   xmlns="http://www.w3.org/2000/svg"
   version="1.0"
   width="246.996"
   height="333.561"
   viewBox="0 0 246.996 333.561"
   id="layer1"
   xml:space="preserve"><defs
   id="defs80" />
<g
   id="panda_1_">
	<g
   id="body">
		<path
   d="M 244.996,204.827 C 245.019,271.929 190.642,326.344 123.54,326.368 C 56.439,326.392 2.023,272.015 2,204.913 C 2,204.884 2,204.855 2,204.827 C 1.976,137.726 56.353,83.31 123.454,83.286 C 190.556,83.263 244.971,137.64 244.996,204.741 C 244.996,204.77 244.996,204.798 244.996,204.827 z "
   style="fill:#ffffff;stroke:#000000;stroke-width:3;stroke-linecap:round;stroke-linejoin:round"
   id="path2385" />
		<path
   d="M 123.493,83.331 C 110.568,83.331 98.118,85.368 86.43,89.112 C 96.944,86.656 108.033,85.331 119.493,85.331 C 150.931,85.331 179.601,95.209 201.181,111.425 C 180.117,93.883 153.027,83.331 123.493,83.331 z M 238.555,165.706 C 240.15,172.194 240.993,178.894 240.993,185.769 C 240.993,241.212 186.56,286.207 119.493,286.207 C 63.409,286.207 16.182,254.748 2.212,212.019 C 5.936,275.744 58.84,326.332 123.493,326.332 C 190.56,326.332 244.993,271.898 244.993,204.832 C 244.993,191.148 242.732,177.981 238.555,165.706 z "
   style="fill-opacity:0.3137"
   id="path3276" />
	</g>
	<g
   id="rear_paws">
		<g
   id="g8">
			<path
   d="M 72.18,257.081 C 41.774,257.081 17.117,281.769 17.117,312.175 C 17.117,318.461 18.175,324.484 20.117,330.113 L 124.273,330.113 C 126.215,324.484 127.273,318.462 127.273,312.175 C 127.274,281.769 102.586,257.081 72.18,257.081 z "
   style="stroke:#000000;stroke-width:3;stroke-linecap:round;stroke-linejoin:round"
   id="path3165" />
			<g
   id="g11">
				<path
   d="M 67.305,314.224 C 67.305,323.89 60.701,331.724 52.555,331.724 C 44.409,331.724 37.805,323.89 37.805,314.224 C 37.805,304.56 44.409,296.724 52.555,296.724 C 60.702,296.724 67.305,304.56 67.305,314.224 L 67.305,314.224 z "
   style="fill:#635c5c;stroke:#000000;stroke-width:3;stroke-linecap:round;stroke-linejoin:round"
   id="path3220" />
				<path
   d="M 104.305,314.224 C 104.305,323.89 97.701,331.724 89.555,331.724 C 81.409,331.724 74.805,323.89 74.805,314.224 C 74.805,304.56 81.409,296.724 89.555,296.724 C 97.702,296.724 104.305,304.56 104.305,314.224 L 104.305,314.224 z "
   style="fill:#635c5c;stroke:#000000;stroke-width:3;stroke-linecap:round;stroke-linejoin:round"
   id="path3224" />
				<path
   d="M 86.805,314.224 C 86.805,323.89 80.201,331.724 72.055,331.724 C 63.909,331.724 57.305,323.89 57.305,314.224 C 57.305,304.56 63.909,296.724 72.055,296.724 C 80.202,296.724 86.805,304.56 86.805,314.224 L 86.805,314.224 z "
   style="fill:#635c5c;stroke:#000000;stroke-width:3;stroke-linecap:round;stroke-linejoin:round"
   id="path3222" />
			</g>
		</g>
		<g
   id="g16">
			<path
   d="M 182.368,257.081 C 151.963,257.081 127.274,281.769 127.274,312.175 C 127.274,318.461 128.332,324.484 130.274,330.113 L 234.43,330.113 C 236.372,324.484 237.43,318.462 237.43,312.175 C 237.43,281.769 212.773,257.081 182.368,257.081 z "
   style="stroke:#000000;stroke-width:3;stroke-linecap:round;stroke-linejoin:round"
   id="path3163" />
			<g
   id="g19">
				<path
   d="M 180.805,314.224 C 180.805,323.89 174.201,331.724 166.055,331.724 C 157.909,331.724 151.305,323.89 151.305,314.224 C 151.305,304.56 157.909,296.724 166.055,296.724 C 174.202,296.724 180.805,304.56 180.805,314.224 L 180.805,314.224 z "
   style="fill:#635c5c;stroke:#000000;stroke-width:3;stroke-linecap:round;stroke-linejoin:round"
   id="path3226" />
				<path
   d="M 217.805,314.224 C 217.805,323.89 211.201,331.724 203.055,331.724 C 194.909,331.724 188.305,323.89 188.305,314.224 C 188.305,304.56 194.909,296.724 203.055,296.724 C 211.202,296.724 217.805,304.56 217.805,314.224 L 217.805,314.224 z "
   style="fill:#635c5c;stroke:#000000;stroke-width:3;stroke-linecap:round;stroke-linejoin:round"
   id="path3228" />
				<path
   d="M 200.305,314.224 C 200.305,323.89 193.701,331.724 185.555,331.724 C 177.409,331.724 170.805,323.89 170.805,314.224 C 170.805,304.56 177.409,296.724 185.555,296.724 C 193.702,296.724 200.305,304.56 200.305,314.224 L 200.305,314.224 z "
   style="fill:#635c5c;stroke:#000000;stroke-width:3;stroke-linecap:round;stroke-linejoin:round"
   id="path3230" />
			</g>
		</g>
	</g>
	<g
   id="shoulders_front_paws">
		<path
   d="M 11.881,156.729 C 11.881,156.729 117.498,217.28 235.116,156.729 C 235.116,156.729 208.998,83.78 122.498,86.28 C 35.998,88.78 11.881,156.729 11.881,156.729 z "
   id="path25" />
		<g
   id="g27">
			<g
   id="path3161_2_">
				<path
   d="M 90.728,161.868 C 94.626,161.868 98.577,162.861 102.195,164.95 C 113.185,171.296 116.951,185.348 110.606,196.339 C 106.35,203.71 98.627,207.831 90.685,207.831 C 86.787,207.831 82.837,206.838 79.218,204.749 C 68.228,198.403 64.462,184.351 70.808,173.36 C 75.064,165.989 82.788,161.868 90.728,161.868 M 90.728,156.868 L 90.728,156.868 C 80.752,156.868 71.46,162.23 66.478,170.86 C 58.764,184.219 63.358,201.365 76.718,209.079 C 80.97,211.534 85.799,212.831 90.685,212.831 C 100.661,212.831 109.953,207.47 114.936,198.839 C 122.649,185.479 118.055,168.334 104.695,160.62 C 100.444,158.166 95.614,156.868 90.728,156.868 L 90.728,156.868 z "
   style="fill:#ffffff"
   id="path30" />
			</g>
			<path
   d="M 117.341,189.521 C 117.341,202.211 107.053,212.5 94.363,212.5 C 81.673,212.5 71.385,202.212 71.385,189.521 C 71.385,176.832 81.672,166.544 94.363,166.544 C 107.054,166.544 117.341,176.831 117.341,189.521 L 117.341,189.521 z "
   style="fill-opacity:0.3137"
   id="path3242" />
			<g
   id="g33">
				<path
   d="M 110.47,173.36 C 116.815,184.35 113.05,198.403 102.06,204.748 C 91.07,211.093 77.017,207.328 70.672,196.338 C 64.327,185.349 68.092,171.295 79.083,164.95 C 90.072,158.604 104.125,162.37 110.47,173.36 L 110.47,173.36 z "
   style="stroke:#000000;stroke-width:3;stroke-linecap:round;stroke-linejoin:round"
   id="path3159" />
				<g
   id="g36">
					<path
   d="M 97.804,190.349 C 102.109,192.835 103.828,197.915 101.644,201.699 C 99.46,205.48 94.201,206.533 89.896,204.047 C 85.591,201.563 83.872,196.481 86.056,192.699 C 88.24,188.915 93.5,187.864 97.804,190.349 L 97.804,190.349 z "
   style="fill:#635c5c;stroke:#000000;stroke-width:3;stroke-linecap:round;stroke-linejoin:round"
   id="path3264" />
					<path
   d="M 107.723,173.171 C 112.028,175.655 113.747,180.736 111.563,184.519 C 109.379,188.302 104.119,189.353 99.815,186.868 C 95.51,184.383 93.791,179.303 95.975,175.519 C 98.158,171.736 103.418,170.685 107.723,173.171 L 107.723,173.171 z "
   style="fill:#635c5c;stroke:#000000;stroke-width:3;stroke-linecap:round;stroke-linejoin:round"
   id="path3266" />
					<path
   d="M 107.014,184.193 C 111.319,186.678 113.038,191.758 110.854,195.542 C 108.67,199.324 103.41,200.376 99.105,197.89 C 94.8,195.406 93.081,190.325 95.265,186.542 C 97.449,182.759 102.709,181.708 107.014,184.193 L 107.014,184.193 z "
   style="fill:#635c5c;stroke:#000000;stroke-width:3;stroke-linecap:round;stroke-linejoin:round"
   id="path3268" />
				</g>
			</g>
		</g>
		<g
   id="g41">
			<g
   id="path3161_3_">
				<path
   d="M 154.728,161.868 C 158.626,161.868 162.577,162.861 166.195,164.95 C 177.185,171.296 180.951,185.348 174.606,196.339 C 170.35,203.71 162.627,207.831 154.685,207.831 C 150.787,207.831 146.837,206.838 143.218,204.749 C 132.228,198.403 128.462,184.351 134.808,173.36 C 139.064,165.989 146.788,161.868 154.728,161.868 M 154.728,156.868 L 154.728,156.868 C 144.752,156.868 135.46,162.23 130.478,170.86 C 122.764,184.219 127.358,201.365 140.718,209.079 C 144.97,211.534 149.799,212.831 154.685,212.831 C 164.661,212.831 173.953,207.47 178.936,198.839 C 186.649,185.479 182.055,168.334 168.695,160.62 C 164.444,158.166 159.614,156.868 154.728,156.868 L 154.728,156.868 z "
   style="fill:#ffffff"
   id="path44" />
			</g>
			<path
   d="M 181.402,189.875 C 181.402,202.565 171.115,212.853 158.425,212.853 C 145.734,212.853 135.446,202.566 135.446,189.875 C 135.446,177.184 145.733,166.897 158.425,166.897 C 171.115,166.897 181.402,177.185 181.402,189.875 L 181.402,189.875 z "
   style="fill-opacity:0.3137"
   id="path3244" />
			<g
   id="g47">
				<path
   d="M 174.606,196.339 C 168.261,207.328 154.209,211.094 143.218,204.749 C 132.228,198.403 128.462,184.351 134.808,173.36 C 141.153,162.37 155.205,158.605 166.195,164.95 C 177.185,171.296 180.951,185.349 174.606,196.339 L 174.606,196.339 z "
   style="stroke:#000000;stroke-width:3;stroke-linecap:round;stroke-linejoin:round"
   id="path3161" />
				<g
   id="g50">
					<path
   d="M 148.232,190.787 C 143.927,193.272 142.209,198.353 144.392,202.136 C 146.575,205.919 151.835,206.97 156.14,204.485 C 160.445,202 162.163,196.919 159.98,193.136 C 157.797,189.353 152.537,188.302 148.232,190.787 L 148.232,190.787 z "
   style="fill:#635c5c;stroke:#000000;stroke-width:3;stroke-linecap:round;stroke-linejoin:round"
   id="path3270" />
					<path
   d="M 138.313,173.608 C 134.008,176.093 132.289,181.174 134.472,184.957 C 136.655,188.74 141.915,189.79 146.22,187.306 C 150.525,184.82 152.244,179.74 150.061,175.957 C 147.878,172.174 142.618,171.123 138.313,173.608 L 138.313,173.608 z "
   style="fill:#635c5c;stroke:#000000;stroke-width:3;stroke-linecap:round;stroke-linejoin:round"
   id="path3272" />
					<path
   d="M 139.022,184.63 C 134.717,187.116 132.998,192.196 135.181,195.98 C 137.365,199.761 142.624,200.813 146.929,198.328 C 151.234,195.843 152.953,190.762 150.77,186.98 C 148.586,183.196 143.327,182.146 139.022,184.63 L 139.022,184.63 z "
   style="fill:#635c5c;stroke:#000000;stroke-width:3;stroke-linecap:round;stroke-linejoin:round"
   id="path3274" />
				</g>
			</g>
		</g>
	</g>
	<g
   id="face_shadows">
		<path
   d="M 124.512,83.344 C 100.007,83.344 77.199,90.599 58.106,103.094 C 66.757,133.576 94.771,155.938 128.012,155.938 C 159.785,155.938 186.811,135.517 196.7,107.094 C 176.514,92.155 151.535,83.344 124.512,83.344 z "
   style="fill-opacity:0.3137"
   id="path3302" />
		<path
   d="M 210.456,18.835 C 210.456,2.543 197.249,-10.665 180.956,-10.665 C 168.476,-10.665 157.813,-2.912 153.504,8.038 C 144.619,4.163 134.818,2 124.512,2 C 114.211,2 104.428,4.164 95.553,8.038 C 91.243,-2.912 80.581,-10.665 68.101,-10.665 C 51.809,-10.665 38.601,2.543 38.601,18.835 C 38.601,31.423 46.489,42.164 57.589,46.399 C 53.89,55.105 51.825,64.669 51.825,74.718 C 51.825,114.853 84.378,147.437 124.512,147.437 C 164.647,147.437 197.231,114.853 197.231,74.718 C 197.231,64.669 195.166,55.105 191.466,46.399 C 202.568,42.165 210.456,31.424 210.456,18.835 z "
   style="fill:#ffffff;stroke:#000000;stroke-width:3"
   id="path57" />
		<path
   d="M 192.106,47.938 C 192.848,52.089 193.231,56.355 193.231,60.719 C 193.231,100.854 160.647,133.438 120.513,133.438 C 89.875,133.438 63.674,114.435 52.982,87.594 C 59.064,121.594 88.774,147.438 124.513,147.438 C 164.648,147.438 197.232,114.854 197.232,74.719 C 197.231,65.256 195.407,56.229 192.106,47.938 z "
   style="fill-opacity:0.3137"
   id="path2525" />
	</g>
	<g
   id="face">
		<g
   id="g61">
			<path
   d="M 167.65,60.353 C 167.65,71.653 158.491,80.812 147.191,80.812 C 135.892,80.812 126.732,71.652 126.732,60.353 C 126.732,49.054 135.892,39.894 147.191,39.894 C 158.491,39.893 167.65,49.053 167.65,60.353 z "
   style="fill:#ffffff;stroke:#000000;stroke-width:10;stroke-linecap:round;stroke-linejoin:round"
   id="path3179" />
			<path
   d="M 148.839,64.284 C 148.839,67.934 145.88,70.894 142.23,70.894 C 138.58,70.894 135.62,67.935 135.62,64.284 C 135.62,60.633 138.58,57.674 142.23,57.674 C 145.88,57.674 148.839,60.633 148.839,64.284 L 148.839,64.284 z "
   id="path3183" />
		</g>
		<g
   id="g65">
			<path
   d="M 122.325,60.353 C 122.325,71.653 113.165,80.812 101.866,80.812 C 90.566,80.812 81.407,71.652 81.407,60.353 C 81.407,49.054 90.567,39.894 101.866,39.894 C 113.165,39.893 122.325,49.053 122.325,60.353 z "
   style="fill:#ffffff;stroke:#000000;stroke-width:10;stroke-linecap:round;stroke-linejoin:round"
   id="path3177" />
			<path
   d="M 114.426,64.284 C 114.426,67.934 111.467,70.894 107.816,70.894 C 104.166,70.894 101.206,67.935 101.206,64.284 C 101.206,60.633 104.165,57.674 107.816,57.674 C 111.467,57.674 114.426,60.633 114.426,64.284 L 114.426,64.284 z "
   id="path2515" />
		</g>
		<path
   d="M 108.26,104.091 C 113.475,98.528 135.37,98.503 140.246,104.786 C 144.876,110.752 133.292,127.733 124.253,127.037 C 115.241,126.344 103.381,109.295 108.26,104.091 z "
   id="path3192" />
	</g>
	<g
   id="ears">
		<g
   id="g71">
			<path
   d="M 202.655,-2.087 C 191.134,-13.947 163.084,-15.344 153.623,9.202 L 154.222,9.807 C 170.927,17.461 182.387,28.774 189.653,46.074 L 190.424,46.856 C 215.829,35.361 214.175,9.773 202.655,-2.087 z "
   id="path73" />
		</g>
		<g
   id="g75">
			<path
   d="M 46.312,-2.114 C 57.833,-13.974 85.883,-15.371 95.344,9.175 L 94.745,10.197 C 78.04,17.851 66.58,28.747 59.314,46.047 L 58.543,46.829 C 33.138,35.334 34.792,9.747 46.312,-2.114 z "
   id="path77" />
		</g>
	</g>
</g>
</svg>